<mxfile host="app.diagrams.net" modified="2021-11-01T07:53:46.605Z" agent="5.0 (Macintosh; Intel Mac OS X 10_15_7) AppleWebKit/537.36 (KHTML, like Gecko) Chrome/94.0.4606.81 Safari/537.36" etag="IuU6wbjUfW_hfwqXW0ob" version="15.6.3" type="github">
  <diagram id="K8b8b4VnxQTFCY8n4fz2" name="Page-1">
    <mxGraphModel dx="2013" dy="630" grid="1" gridSize="10" guides="1" tooltips="1" connect="1" arrows="1" fold="1" page="1" pageScale="1" pageWidth="827" pageHeight="1169" math="0" shadow="0">
      <root>
        <mxCell id="0" />
        <mxCell id="1" parent="0" />
        <object label="生产" id="Laq7MZ66SM4BXWgWfHiE-8">
          <mxCell style="swimlane;childLayout=stackLayout;resizeParent=1;resizeParentMax=0;startSize=20;hachureGap=4;pointerEvents=0;" parent="1" vertex="1">
            <mxGeometry x="90" y="120" width="360" height="1310" as="geometry" />
          </mxCell>
        </object>
        <mxCell id="Laq7MZ66SM4BXWgWfHiE-9" value="项目/产品经理" style="swimlane;startSize=20;fillColor=#f5f5f5;strokeColor=#666666;fontColor=#333333;" parent="Laq7MZ66SM4BXWgWfHiE-8" vertex="1">
          <mxGeometry y="20" width="120" height="1290" as="geometry" />
        </mxCell>
        <mxCell id="jKQGevSTnmmPV13H3LuQ-14" style="edgeStyle=orthogonalEdgeStyle;rounded=0;orthogonalLoop=1;jettySize=auto;html=1;exitX=0.5;exitY=1;exitDx=0;exitDy=0;" parent="Laq7MZ66SM4BXWgWfHiE-9" source="Laq7MZ66SM4BXWgWfHiE-18" target="Laq7MZ66SM4BXWgWfHiE-19" edge="1">
          <mxGeometry relative="1" as="geometry" />
        </mxCell>
        <mxCell id="Laq7MZ66SM4BXWgWfHiE-18" value="需求调研&lt;br&gt;原型设计" style="rounded=0;whiteSpace=wrap;html=1;hachureGap=4;pointerEvents=0;fillColor=#f5f5f5;strokeColor=#666666;fontColor=#333333;" parent="Laq7MZ66SM4BXWgWfHiE-9" vertex="1">
          <mxGeometry x="10" y="40" width="80" height="40" as="geometry" />
        </mxCell>
        <mxCell id="jKQGevSTnmmPV13H3LuQ-1" style="edgeStyle=orthogonalEdgeStyle;rounded=0;orthogonalLoop=1;jettySize=auto;html=1;exitX=1;exitY=0.5;exitDx=0;exitDy=0;entryX=1;entryY=0.5;entryDx=0;entryDy=0;" parent="Laq7MZ66SM4BXWgWfHiE-9" source="Laq7MZ66SM4BXWgWfHiE-19" target="Laq7MZ66SM4BXWgWfHiE-18" edge="1">
          <mxGeometry relative="1" as="geometry" />
        </mxCell>
        <mxCell id="jKQGevSTnmmPV13H3LuQ-2" value="不通过" style="edgeLabel;html=1;align=center;verticalAlign=middle;resizable=0;points=[];" parent="jKQGevSTnmmPV13H3LuQ-1" vertex="1" connectable="0">
          <mxGeometry x="0.0182" y="2" relative="1" as="geometry">
            <mxPoint as="offset" />
          </mxGeometry>
        </mxCell>
        <mxCell id="Laq7MZ66SM4BXWgWfHiE-19" value="需求评审" style="rounded=0;whiteSpace=wrap;html=1;hachureGap=4;pointerEvents=0;fillColor=#f5f5f5;strokeColor=#666666;fontColor=#333333;" parent="Laq7MZ66SM4BXWgWfHiE-9" vertex="1">
          <mxGeometry x="10" y="110" width="80" height="40" as="geometry" />
        </mxCell>
        <mxCell id="jKQGevSTnmmPV13H3LuQ-67" value="线上问题收集" style="rounded=0;whiteSpace=wrap;html=1;hachureGap=4;pointerEvents=0;fillColor=#f5f5f5;strokeColor=#666666;fontColor=#333333;" parent="Laq7MZ66SM4BXWgWfHiE-9" vertex="1">
          <mxGeometry x="20" y="1143" width="80" height="40" as="geometry" />
        </mxCell>
        <mxCell id="Laq7MZ66SM4BXWgWfHiE-10" value="研发" style="swimlane;startSize=20;fillColor=#dae8fc;strokeColor=#6c8ebf;" parent="Laq7MZ66SM4BXWgWfHiE-8" vertex="1">
          <mxGeometry x="120" y="20" width="120" height="1290" as="geometry" />
        </mxCell>
        <mxCell id="jKQGevSTnmmPV13H3LuQ-15" style="edgeStyle=orthogonalEdgeStyle;rounded=0;orthogonalLoop=1;jettySize=auto;html=1;exitX=0.5;exitY=1;exitDx=0;exitDy=0;entryX=0.5;entryY=0;entryDx=0;entryDy=0;" parent="Laq7MZ66SM4BXWgWfHiE-10" source="jKQGevSTnmmPV13H3LuQ-7" target="jKQGevSTnmmPV13H3LuQ-9" edge="1">
          <mxGeometry relative="1" as="geometry" />
        </mxCell>
        <mxCell id="jKQGevSTnmmPV13H3LuQ-7" value="开发概要设计" style="rounded=0;whiteSpace=wrap;html=1;hachureGap=4;pointerEvents=0;fillColor=#dae8fc;strokeColor=#6c8ebf;" parent="Laq7MZ66SM4BXWgWfHiE-10" vertex="1">
          <mxGeometry x="3" y="190" width="80" height="40" as="geometry" />
        </mxCell>
        <mxCell id="jKQGevSTnmmPV13H3LuQ-10" style="edgeStyle=orthogonalEdgeStyle;rounded=0;orthogonalLoop=1;jettySize=auto;html=1;exitX=1;exitY=0.5;exitDx=0;exitDy=0;entryX=1;entryY=0.5;entryDx=0;entryDy=0;" parent="Laq7MZ66SM4BXWgWfHiE-10" source="jKQGevSTnmmPV13H3LuQ-9" target="jKQGevSTnmmPV13H3LuQ-7" edge="1">
          <mxGeometry relative="1" as="geometry" />
        </mxCell>
        <mxCell id="jKQGevSTnmmPV13H3LuQ-11" value="不通过" style="edgeLabel;html=1;align=center;verticalAlign=middle;resizable=0;points=[];" parent="jKQGevSTnmmPV13H3LuQ-10" vertex="1" connectable="0">
          <mxGeometry x="-0.22" relative="1" as="geometry">
            <mxPoint y="-11" as="offset" />
          </mxGeometry>
        </mxCell>
        <mxCell id="jKQGevSTnmmPV13H3LuQ-9" value="概要设计评审" style="rounded=0;whiteSpace=wrap;html=1;hachureGap=4;pointerEvents=0;fillColor=#dae8fc;strokeColor=#6c8ebf;" parent="Laq7MZ66SM4BXWgWfHiE-10" vertex="1">
          <mxGeometry x="3" y="250" width="80" height="40" as="geometry" />
        </mxCell>
        <mxCell id="jKQGevSTnmmPV13H3LuQ-25" value="" style="edgeStyle=orthogonalEdgeStyle;rounded=0;orthogonalLoop=1;jettySize=auto;html=1;" parent="Laq7MZ66SM4BXWgWfHiE-10" source="jKQGevSTnmmPV13H3LuQ-23" target="jKQGevSTnmmPV13H3LuQ-24" edge="1">
          <mxGeometry relative="1" as="geometry" />
        </mxCell>
        <mxCell id="jKQGevSTnmmPV13H3LuQ-23" value="开发（编码）" style="rounded=0;whiteSpace=wrap;html=1;hachureGap=4;pointerEvents=0;fillColor=#dae8fc;strokeColor=#6c8ebf;" parent="Laq7MZ66SM4BXWgWfHiE-10" vertex="1">
          <mxGeometry x="3" y="470" width="80" height="40" as="geometry" />
        </mxCell>
        <mxCell id="jKQGevSTnmmPV13H3LuQ-27" value="不通过" style="edgeStyle=orthogonalEdgeStyle;rounded=0;orthogonalLoop=1;jettySize=auto;html=1;exitX=1;exitY=0.5;exitDx=0;exitDy=0;entryX=1;entryY=0.5;entryDx=0;entryDy=0;" parent="Laq7MZ66SM4BXWgWfHiE-10" source="jKQGevSTnmmPV13H3LuQ-24" target="jKQGevSTnmmPV13H3LuQ-23" edge="1">
          <mxGeometry relative="1" as="geometry" />
        </mxCell>
        <mxCell id="jKQGevSTnmmPV13H3LuQ-28" style="edgeStyle=orthogonalEdgeStyle;rounded=0;orthogonalLoop=1;jettySize=auto;html=1;exitX=0.5;exitY=1;exitDx=0;exitDy=0;entryX=0.5;entryY=0;entryDx=0;entryDy=0;" parent="Laq7MZ66SM4BXWgWfHiE-10" source="jKQGevSTnmmPV13H3LuQ-24" target="jKQGevSTnmmPV13H3LuQ-26" edge="1">
          <mxGeometry relative="1" as="geometry" />
        </mxCell>
        <mxCell id="jKQGevSTnmmPV13H3LuQ-24" value="冒烟自测" style="rhombus;whiteSpace=wrap;html=1;rounded=0;hachureGap=4;fillColor=#ffe6cc;strokeColor=#d79b00;" parent="Laq7MZ66SM4BXWgWfHiE-10" vertex="1">
          <mxGeometry x="4.5" y="540" width="77" height="40" as="geometry" />
        </mxCell>
        <mxCell id="jKQGevSTnmmPV13H3LuQ-26" value="提交测试" style="rounded=0;whiteSpace=wrap;html=1;hachureGap=4;pointerEvents=0;fillColor=#dae8fc;strokeColor=#6c8ebf;" parent="Laq7MZ66SM4BXWgWfHiE-10" vertex="1">
          <mxGeometry x="2.5" y="610" width="80" height="40" as="geometry" />
        </mxCell>
        <mxCell id="jKQGevSTnmmPV13H3LuQ-60" style="edgeStyle=orthogonalEdgeStyle;rounded=0;orthogonalLoop=1;jettySize=auto;html=1;exitX=0;exitY=0.5;exitDx=0;exitDy=0;entryX=0;entryY=0.5;entryDx=0;entryDy=0;" parent="Laq7MZ66SM4BXWgWfHiE-10" source="jKQGevSTnmmPV13H3LuQ-57" target="jKQGevSTnmmPV13H3LuQ-23" edge="1">
          <mxGeometry relative="1" as="geometry" />
        </mxCell>
        <mxCell id="jKQGevSTnmmPV13H3LuQ-61" value="BUG反馈" style="edgeLabel;html=1;align=center;verticalAlign=middle;resizable=0;points=[];" parent="jKQGevSTnmmPV13H3LuQ-60" vertex="1" connectable="0">
          <mxGeometry x="-0.1621" y="-2" relative="1" as="geometry">
            <mxPoint y="-48" as="offset" />
          </mxGeometry>
        </mxCell>
        <mxCell id="jKQGevSTnmmPV13H3LuQ-57" value="问题排查" style="rounded=0;whiteSpace=wrap;html=1;hachureGap=4;fillColor=#dae8fc;strokeColor=#6c8ebf;" parent="Laq7MZ66SM4BXWgWfHiE-10" vertex="1">
          <mxGeometry x="15" y="980" width="90" height="45" as="geometry" />
        </mxCell>
        <mxCell id="jKQGevSTnmmPV13H3LuQ-8" style="edgeStyle=orthogonalEdgeStyle;rounded=0;orthogonalLoop=1;jettySize=auto;html=1;exitX=0.5;exitY=1;exitDx=0;exitDy=0;entryX=0.5;entryY=0;entryDx=0;entryDy=0;" parent="Laq7MZ66SM4BXWgWfHiE-8" source="Laq7MZ66SM4BXWgWfHiE-19" target="jKQGevSTnmmPV13H3LuQ-7" edge="1">
          <mxGeometry relative="1" as="geometry" />
        </mxCell>
        <mxCell id="Laq7MZ66SM4BXWgWfHiE-11" value="测试" style="swimlane;startSize=20;fillColor=#d5e8d4;strokeColor=#82b366;" parent="Laq7MZ66SM4BXWgWfHiE-8" vertex="1">
          <mxGeometry x="240" y="20" width="120" height="1290" as="geometry">
            <mxRectangle x="240" y="20" width="30" height="460" as="alternateBounds" />
          </mxGeometry>
        </mxCell>
        <mxCell id="jKQGevSTnmmPV13H3LuQ-19" style="edgeStyle=orthogonalEdgeStyle;rounded=0;orthogonalLoop=1;jettySize=auto;html=1;exitX=0.5;exitY=1;exitDx=0;exitDy=0;entryX=0.5;entryY=0;entryDx=0;entryDy=0;" parent="Laq7MZ66SM4BXWgWfHiE-11" source="jKQGevSTnmmPV13H3LuQ-16" target="jKQGevSTnmmPV13H3LuQ-17" edge="1">
          <mxGeometry relative="1" as="geometry" />
        </mxCell>
        <mxCell id="jKQGevSTnmmPV13H3LuQ-16" value="测试方案设计" style="rounded=0;whiteSpace=wrap;html=1;hachureGap=4;pointerEvents=0;fillColor=#d5e8d4;strokeColor=#82b366;" parent="Laq7MZ66SM4BXWgWfHiE-11" vertex="1">
          <mxGeometry x="4" y="330" width="80" height="40" as="geometry" />
        </mxCell>
        <mxCell id="jKQGevSTnmmPV13H3LuQ-20" value="不通过" style="edgeStyle=orthogonalEdgeStyle;rounded=0;orthogonalLoop=1;jettySize=auto;html=1;exitX=1;exitY=0.5;exitDx=0;exitDy=0;entryX=1;entryY=0.5;entryDx=0;entryDy=0;" parent="Laq7MZ66SM4BXWgWfHiE-11" source="jKQGevSTnmmPV13H3LuQ-17" target="jKQGevSTnmmPV13H3LuQ-16" edge="1">
          <mxGeometry relative="1" as="geometry" />
        </mxCell>
        <mxCell id="jKQGevSTnmmPV13H3LuQ-17" value="测试方案评审" style="rounded=0;whiteSpace=wrap;html=1;hachureGap=4;pointerEvents=0;fillColor=#d5e8d4;strokeColor=#82b366;" parent="Laq7MZ66SM4BXWgWfHiE-11" vertex="1">
          <mxGeometry x="4" y="390" width="80" height="40" as="geometry" />
        </mxCell>
        <mxCell id="jKQGevSTnmmPV13H3LuQ-32" value="" style="edgeStyle=orthogonalEdgeStyle;rounded=0;orthogonalLoop=1;jettySize=auto;html=1;" parent="Laq7MZ66SM4BXWgWfHiE-11" source="jKQGevSTnmmPV13H3LuQ-29" target="jKQGevSTnmmPV13H3LuQ-31" edge="1">
          <mxGeometry relative="1" as="geometry" />
        </mxCell>
        <mxCell id="jKQGevSTnmmPV13H3LuQ-33" value="一轮测试" style="edgeLabel;html=1;align=center;verticalAlign=middle;resizable=0;points=[];" parent="jKQGevSTnmmPV13H3LuQ-32" vertex="1" connectable="0">
          <mxGeometry x="-0.425" y="1" relative="1" as="geometry">
            <mxPoint x="-2" y="-8" as="offset" />
          </mxGeometry>
        </mxCell>
        <mxCell id="jKQGevSTnmmPV13H3LuQ-34" value="二轮测试" style="edgeLabel;html=1;align=center;verticalAlign=middle;resizable=0;points=[];" parent="jKQGevSTnmmPV13H3LuQ-32" vertex="1" connectable="0">
          <mxGeometry x="0.275" relative="1" as="geometry">
            <mxPoint x="-1" y="-14" as="offset" />
          </mxGeometry>
        </mxCell>
        <mxCell id="jKQGevSTnmmPV13H3LuQ-35" value="三轮测试" style="edgeLabel;html=1;align=center;verticalAlign=middle;resizable=0;points=[];" parent="jKQGevSTnmmPV13H3LuQ-32" vertex="1" connectable="0">
          <mxGeometry x="0.62" y="1" relative="1" as="geometry">
            <mxPoint x="-2" y="-8" as="offset" />
          </mxGeometry>
        </mxCell>
        <mxCell id="jKQGevSTnmmPV13H3LuQ-29" value="测试执行" style="rhombus;whiteSpace=wrap;html=1;rounded=0;hachureGap=4;fillColor=#ffe6cc;strokeColor=#d79b00;" parent="Laq7MZ66SM4BXWgWfHiE-11" vertex="1">
          <mxGeometry x="20" y="680" width="80" height="50" as="geometry" />
        </mxCell>
        <mxCell id="jKQGevSTnmmPV13H3LuQ-31" value="测试完成" style="rounded=0;whiteSpace=wrap;html=1;hachureGap=4;fillColor=#d5e8d4;strokeColor=#82b366;" parent="Laq7MZ66SM4BXWgWfHiE-11" vertex="1">
          <mxGeometry x="15" y="796" width="90" height="45" as="geometry" />
        </mxCell>
        <mxCell id="jKQGevSTnmmPV13H3LuQ-39" value="上线申请评审" style="rounded=0;whiteSpace=wrap;html=1;hachureGap=4;fillColor=#d5e8d4;strokeColor=#82b366;" parent="Laq7MZ66SM4BXWgWfHiE-11" vertex="1">
          <mxGeometry x="15" y="870" width="90" height="45" as="geometry" />
        </mxCell>
        <mxCell id="jKQGevSTnmmPV13H3LuQ-40" value="" style="edgeStyle=orthogonalEdgeStyle;rounded=0;orthogonalLoop=1;jettySize=auto;html=1;" parent="Laq7MZ66SM4BXWgWfHiE-11" source="jKQGevSTnmmPV13H3LuQ-31" target="jKQGevSTnmmPV13H3LuQ-39" edge="1">
          <mxGeometry relative="1" as="geometry" />
        </mxCell>
        <mxCell id="jKQGevSTnmmPV13H3LuQ-45" style="edgeStyle=orthogonalEdgeStyle;rounded=0;orthogonalLoop=1;jettySize=auto;html=1;exitX=0.5;exitY=1;exitDx=0;exitDy=0;dashed=1;" parent="Laq7MZ66SM4BXWgWfHiE-11" source="jKQGevSTnmmPV13H3LuQ-39" target="jKQGevSTnmmPV13H3LuQ-39" edge="1">
          <mxGeometry relative="1" as="geometry" />
        </mxCell>
        <mxCell id="jKQGevSTnmmPV13H3LuQ-52" style="edgeStyle=orthogonalEdgeStyle;rounded=0;orthogonalLoop=1;jettySize=auto;html=1;exitX=0.5;exitY=1;exitDx=0;exitDy=0;" parent="Laq7MZ66SM4BXWgWfHiE-11" source="jKQGevSTnmmPV13H3LuQ-49" target="jKQGevSTnmmPV13H3LuQ-51" edge="1">
          <mxGeometry relative="1" as="geometry" />
        </mxCell>
        <mxCell id="jKQGevSTnmmPV13H3LuQ-49" value="线上回归" style="rhombus;whiteSpace=wrap;html=1;rounded=0;hachureGap=4;fillColor=#ffe6cc;strokeColor=#d79b00;" parent="Laq7MZ66SM4BXWgWfHiE-11" vertex="1">
          <mxGeometry x="20" y="1060" width="80" height="50" as="geometry" />
        </mxCell>
        <mxCell id="jKQGevSTnmmPV13H3LuQ-51" value="上线成功" style="rounded=0;whiteSpace=wrap;html=1;hachureGap=4;fillColor=#d5e8d4;strokeColor=#82b366;" parent="Laq7MZ66SM4BXWgWfHiE-11" vertex="1">
          <mxGeometry x="15" y="1140" width="90" height="45" as="geometry" />
        </mxCell>
        <mxCell id="jKQGevSTnmmPV13H3LuQ-18" style="edgeStyle=orthogonalEdgeStyle;rounded=0;orthogonalLoop=1;jettySize=auto;html=1;exitX=0.5;exitY=1;exitDx=0;exitDy=0;entryX=0.5;entryY=0;entryDx=0;entryDy=0;" parent="Laq7MZ66SM4BXWgWfHiE-8" source="jKQGevSTnmmPV13H3LuQ-9" target="jKQGevSTnmmPV13H3LuQ-16" edge="1">
          <mxGeometry relative="1" as="geometry" />
        </mxCell>
        <mxCell id="jKQGevSTnmmPV13H3LuQ-30" value="" style="edgeStyle=orthogonalEdgeStyle;rounded=0;orthogonalLoop=1;jettySize=auto;html=1;" parent="Laq7MZ66SM4BXWgWfHiE-8" source="jKQGevSTnmmPV13H3LuQ-26" target="jKQGevSTnmmPV13H3LuQ-29" edge="1">
          <mxGeometry relative="1" as="geometry" />
        </mxCell>
        <mxCell id="jKQGevSTnmmPV13H3LuQ-37" value="BUG反馈" style="edgeStyle=orthogonalEdgeStyle;rounded=0;orthogonalLoop=1;jettySize=auto;html=1;exitX=1;exitY=0.5;exitDx=0;exitDy=0;entryX=1;entryY=0.25;entryDx=0;entryDy=0;" parent="Laq7MZ66SM4BXWgWfHiE-8" source="jKQGevSTnmmPV13H3LuQ-29" target="jKQGevSTnmmPV13H3LuQ-23" edge="1">
          <mxGeometry x="-0.2408" relative="1" as="geometry">
            <Array as="points">
              <mxPoint x="350" y="725" />
              <mxPoint x="350" y="500" />
            </Array>
            <mxPoint as="offset" />
          </mxGeometry>
        </mxCell>
        <mxCell id="jKQGevSTnmmPV13H3LuQ-55" style="edgeStyle=orthogonalEdgeStyle;rounded=0;orthogonalLoop=1;jettySize=auto;html=1;exitX=0.5;exitY=1;exitDx=0;exitDy=0;entryX=0.5;entryY=0;entryDx=0;entryDy=0;" parent="Laq7MZ66SM4BXWgWfHiE-8" source="jKQGevSTnmmPV13H3LuQ-17" target="jKQGevSTnmmPV13H3LuQ-23" edge="1">
          <mxGeometry relative="1" as="geometry" />
        </mxCell>
        <mxCell id="jKQGevSTnmmPV13H3LuQ-58" style="edgeStyle=orthogonalEdgeStyle;rounded=0;orthogonalLoop=1;jettySize=auto;html=1;entryX=0.5;entryY=1;entryDx=0;entryDy=0;" parent="Laq7MZ66SM4BXWgWfHiE-8" source="jKQGevSTnmmPV13H3LuQ-49" target="jKQGevSTnmmPV13H3LuQ-57" edge="1">
          <mxGeometry relative="1" as="geometry" />
        </mxCell>
        <mxCell id="jKQGevSTnmmPV13H3LuQ-59" value="不通过" style="edgeLabel;html=1;align=center;verticalAlign=middle;resizable=0;points=[];" parent="jKQGevSTnmmPV13H3LuQ-58" vertex="1" connectable="0">
          <mxGeometry x="0.1429" relative="1" as="geometry">
            <mxPoint as="offset" />
          </mxGeometry>
        </mxCell>
        <mxCell id="jKQGevSTnmmPV13H3LuQ-68" style="edgeStyle=orthogonalEdgeStyle;rounded=0;orthogonalLoop=1;jettySize=auto;html=1;exitX=0;exitY=0.5;exitDx=0;exitDy=0;entryX=1;entryY=0.5;entryDx=0;entryDy=0;" parent="Laq7MZ66SM4BXWgWfHiE-8" source="jKQGevSTnmmPV13H3LuQ-51" target="jKQGevSTnmmPV13H3LuQ-67" edge="1">
          <mxGeometry relative="1" as="geometry" />
        </mxCell>
        <mxCell id="jKQGevSTnmmPV13H3LuQ-5" style="edgeStyle=orthogonalEdgeStyle;rounded=0;orthogonalLoop=1;jettySize=auto;html=1;exitX=1;exitY=0.75;exitDx=0;exitDy=0;entryX=0;entryY=0.5;entryDx=0;entryDy=0;dashed=1;fillColor=#f8cecc;strokeColor=#b85450;" parent="1" source="Laq7MZ66SM4BXWgWfHiE-19" target="jKQGevSTnmmPV13H3LuQ-3" edge="1">
          <mxGeometry relative="1" as="geometry" />
        </mxCell>
        <mxCell id="jKQGevSTnmmPV13H3LuQ-13" style="edgeStyle=orthogonalEdgeStyle;rounded=0;orthogonalLoop=1;jettySize=auto;html=1;exitX=1;exitY=0.75;exitDx=0;exitDy=0;entryX=0;entryY=0.5;entryDx=0;entryDy=0;dashed=1;fillColor=#f8cecc;strokeColor=#b85450;" parent="1" source="jKQGevSTnmmPV13H3LuQ-9" target="jKQGevSTnmmPV13H3LuQ-12" edge="1">
          <mxGeometry relative="1" as="geometry" />
        </mxCell>
        <mxCell id="jKQGevSTnmmPV13H3LuQ-22" style="edgeStyle=orthogonalEdgeStyle;rounded=0;orthogonalLoop=1;jettySize=auto;html=1;exitX=1;exitY=0.75;exitDx=0;exitDy=0;dashed=1;fillColor=#f8cecc;strokeColor=#b85450;" parent="1" source="jKQGevSTnmmPV13H3LuQ-17" target="jKQGevSTnmmPV13H3LuQ-21" edge="1">
          <mxGeometry relative="1" as="geometry" />
        </mxCell>
        <mxCell id="jKQGevSTnmmPV13H3LuQ-42" style="edgeStyle=orthogonalEdgeStyle;rounded=0;orthogonalLoop=1;jettySize=auto;html=1;exitX=1;exitY=0.5;exitDx=0;exitDy=0;dashed=1;fillColor=#f8cecc;strokeColor=#b85450;" parent="1" source="jKQGevSTnmmPV13H3LuQ-31" target="jKQGevSTnmmPV13H3LuQ-41" edge="1">
          <mxGeometry relative="1" as="geometry" />
        </mxCell>
        <mxCell id="jKQGevSTnmmPV13H3LuQ-44" style="edgeStyle=orthogonalEdgeStyle;rounded=0;orthogonalLoop=1;jettySize=auto;html=1;exitX=1;exitY=0.5;exitDx=0;exitDy=0;entryX=0;entryY=0.5;entryDx=0;entryDy=0;dashed=1;fillColor=#f8cecc;strokeColor=#b85450;" parent="1" source="jKQGevSTnmmPV13H3LuQ-39" target="jKQGevSTnmmPV13H3LuQ-43" edge="1">
          <mxGeometry relative="1" as="geometry" />
        </mxCell>
        <mxCell id="jKQGevSTnmmPV13H3LuQ-47" value="" style="edgeStyle=orthogonalEdgeStyle;rounded=0;orthogonalLoop=1;jettySize=auto;html=1;exitX=0.5;exitY=1;exitDx=0;exitDy=0;" parent="1" source="jKQGevSTnmmPV13H3LuQ-39" target="jKQGevSTnmmPV13H3LuQ-46" edge="1">
          <mxGeometry relative="1" as="geometry" />
        </mxCell>
        <mxCell id="jKQGevSTnmmPV13H3LuQ-50" style="edgeStyle=orthogonalEdgeStyle;rounded=0;orthogonalLoop=1;jettySize=auto;html=1;exitX=0.5;exitY=1;exitDx=0;exitDy=0;entryX=0.5;entryY=0;entryDx=0;entryDy=0;" parent="1" source="jKQGevSTnmmPV13H3LuQ-46" target="jKQGevSTnmmPV13H3LuQ-49" edge="1">
          <mxGeometry relative="1" as="geometry" />
        </mxCell>
        <mxCell id="jKQGevSTnmmPV13H3LuQ-54" style="edgeStyle=orthogonalEdgeStyle;rounded=0;orthogonalLoop=1;jettySize=auto;html=1;exitX=1;exitY=0.5;exitDx=0;exitDy=0;entryX=0;entryY=0.5;entryDx=0;entryDy=0;fillColor=#f8cecc;strokeColor=#b85450;dashed=1;" parent="1" source="jKQGevSTnmmPV13H3LuQ-51" target="jKQGevSTnmmPV13H3LuQ-53" edge="1">
          <mxGeometry relative="1" as="geometry" />
        </mxCell>
        <mxCell id="jKQGevSTnmmPV13H3LuQ-63" style="edgeStyle=orthogonalEdgeStyle;rounded=0;orthogonalLoop=1;jettySize=auto;html=1;exitX=1;exitY=0.5;exitDx=0;exitDy=0;entryX=0;entryY=0.5;entryDx=0;entryDy=0;" parent="1" source="jKQGevSTnmmPV13H3LuQ-62" target="Laq7MZ66SM4BXWgWfHiE-18" edge="1">
          <mxGeometry relative="1" as="geometry" />
        </mxCell>
        <mxCell id="jKQGevSTnmmPV13H3LuQ-62" value="项目启动" style="rounded=1;whiteSpace=wrap;html=1;fillColor=#e51400;fontColor=#ffffff;strokeColor=#B20000;" parent="1" vertex="1">
          <mxGeometry x="-60" y="180" width="90" height="40" as="geometry" />
        </mxCell>
        <mxCell id="jKQGevSTnmmPV13H3LuQ-65" value="项目完成" style="rounded=1;whiteSpace=wrap;html=1;fillColor=#e51400;fontColor=#ffffff;strokeColor=#B20000;" parent="1" vertex="1">
          <mxGeometry x="-50" y="1360" width="90" height="40" as="geometry" />
        </mxCell>
        <mxCell id="jKQGevSTnmmPV13H3LuQ-66" style="edgeStyle=orthogonalEdgeStyle;rounded=0;orthogonalLoop=1;jettySize=auto;html=1;exitX=0.5;exitY=1;exitDx=0;exitDy=0;entryX=1;entryY=0.5;entryDx=0;entryDy=0;" parent="1" source="jKQGevSTnmmPV13H3LuQ-51" target="jKQGevSTnmmPV13H3LuQ-65" edge="1">
          <mxGeometry relative="1" as="geometry" />
        </mxCell>
        <mxCell id="jKQGevSTnmmPV13H3LuQ-73" style="edgeStyle=orthogonalEdgeStyle;rounded=0;orthogonalLoop=1;jettySize=auto;html=1;exitX=1;exitY=1;exitDx=0;exitDy=0;entryX=0;entryY=0.25;entryDx=0;entryDy=0;dashed=1;dashPattern=1 1;" parent="1" source="jKQGevSTnmmPV13H3LuQ-9" target="jKQGevSTnmmPV13H3LuQ-71" edge="1">
          <mxGeometry relative="1" as="geometry">
            <Array as="points">
              <mxPoint x="293" y="440" />
            </Array>
          </mxGeometry>
        </mxCell>
        <mxCell id="jKQGevSTnmmPV13H3LuQ-76" style="edgeStyle=orthogonalEdgeStyle;rounded=0;orthogonalLoop=1;jettySize=auto;html=1;exitX=1;exitY=0.5;exitDx=0;exitDy=0;entryX=0;entryY=0.5;entryDx=0;entryDy=0;dashed=1;dashPattern=1 1;" parent="1" source="jKQGevSTnmmPV13H3LuQ-26" target="jKQGevSTnmmPV13H3LuQ-75" edge="1">
          <mxGeometry relative="1" as="geometry" />
        </mxCell>
        <mxCell id="jKQGevSTnmmPV13H3LuQ-78" value="" style="endArrow=classic;html=1;rounded=0;dashed=1;dashPattern=1 1;entryX=0;entryY=0.5;entryDx=0;entryDy=0;" parent="1" target="jKQGevSTnmmPV13H3LuQ-77" edge="1">
          <mxGeometry width="50" height="50" relative="1" as="geometry">
            <mxPoint x="410" y="900" as="sourcePoint" />
            <mxPoint x="510" y="790" as="targetPoint" />
          </mxGeometry>
        </mxCell>
        <mxCell id="jKQGevSTnmmPV13H3LuQ-80" value="" style="endArrow=classic;html=1;rounded=0;dashed=1;dashPattern=1 1;entryX=0;entryY=0.5;entryDx=0;entryDy=0;" parent="1" target="jKQGevSTnmmPV13H3LuQ-79" edge="1">
          <mxGeometry width="50" height="50" relative="1" as="geometry">
            <mxPoint x="460" y="710" as="sourcePoint" />
            <mxPoint x="510" y="810" as="targetPoint" />
          </mxGeometry>
        </mxCell>
        <mxCell id="aCxWOqsUyS7sPfSE0WhM-2" style="edgeStyle=orthogonalEdgeStyle;rounded=0;orthogonalLoop=1;jettySize=auto;html=1;exitX=1;exitY=1;exitDx=0;exitDy=0;entryX=0;entryY=0.5;entryDx=0;entryDy=0;dashed=1;dashPattern=1 1;" edge="1" parent="1" source="jKQGevSTnmmPV13H3LuQ-51" target="aCxWOqsUyS7sPfSE0WhM-1">
          <mxGeometry relative="1" as="geometry" />
        </mxCell>
        <mxCell id="Laq7MZ66SM4BXWgWfHiE-13" value="Untitled Layer" parent="0" />
        <mxCell id="Laq7MZ66SM4BXWgWfHiE-14" value="文档" style="swimlane;childLayout=stackLayout;resizeParent=1;resizeParentMax=0;startSize=20;hachureGap=4;pointerEvents=0;gradientColor=none;" parent="Laq7MZ66SM4BXWgWfHiE-13" vertex="1">
          <mxGeometry x="450" y="120" width="360" height="1310" as="geometry" />
        </mxCell>
        <mxCell id="Laq7MZ66SM4BXWgWfHiE-15" value="运维" style="swimlane;startSize=20;fillColor=#e1d5e7;strokeColor=#9673a6;" parent="Laq7MZ66SM4BXWgWfHiE-14" vertex="1">
          <mxGeometry y="20" width="120" height="1290" as="geometry" />
        </mxCell>
        <mxCell id="jKQGevSTnmmPV13H3LuQ-46" value="上线部署" style="rounded=0;whiteSpace=wrap;html=1;hachureGap=4;fillColor=#e1d5e7;strokeColor=#9673a6;" parent="Laq7MZ66SM4BXWgWfHiE-15" vertex="1">
          <mxGeometry x="10" y="970" width="90" height="45" as="geometry" />
        </mxCell>
        <mxCell id="Laq7MZ66SM4BXWgWfHiE-16" value="Redmine" style="swimlane;startSize=20;" parent="Laq7MZ66SM4BXWgWfHiE-14" vertex="1">
          <mxGeometry x="120" y="20" width="120" height="1290" as="geometry" />
        </mxCell>
        <mxCell id="jKQGevSTnmmPV13H3LuQ-71" value="建立对应开发任务" style="rounded=1;whiteSpace=wrap;html=1;" parent="Laq7MZ66SM4BXWgWfHiE-16" vertex="1">
          <mxGeometry x="10" y="290" width="100" height="40" as="geometry" />
        </mxCell>
        <mxCell id="jKQGevSTnmmPV13H3LuQ-75" value="建立冒烟测试任务" style="rounded=1;whiteSpace=wrap;html=1;" parent="Laq7MZ66SM4BXWgWfHiE-16" vertex="1">
          <mxGeometry x="10" y="610" width="100" height="40" as="geometry" />
        </mxCell>
        <mxCell id="jKQGevSTnmmPV13H3LuQ-77" value="建立各轮测试任务" style="rounded=1;whiteSpace=wrap;html=1;" parent="Laq7MZ66SM4BXWgWfHiE-16" vertex="1">
          <mxGeometry x="10" y="740" width="100" height="40" as="geometry" />
        </mxCell>
        <mxCell id="jKQGevSTnmmPV13H3LuQ-79" value="提交BUG记录" style="rounded=1;whiteSpace=wrap;html=1;" parent="Laq7MZ66SM4BXWgWfHiE-16" vertex="1">
          <mxGeometry x="10" y="550" width="100" height="40" as="geometry" />
        </mxCell>
        <mxCell id="aCxWOqsUyS7sPfSE0WhM-1" value="1. 版本归档&lt;br&gt;2. 统计分析" style="rounded=1;whiteSpace=wrap;html=1;" vertex="1" parent="Laq7MZ66SM4BXWgWfHiE-16">
          <mxGeometry x="10" y="1190" width="70" height="30" as="geometry" />
        </mxCell>
        <mxCell id="Laq7MZ66SM4BXWgWfHiE-17" value="里程碑输出" style="swimlane;startSize=20;fillColor=#f8cecc;strokeColor=#b85450;" parent="Laq7MZ66SM4BXWgWfHiE-14" vertex="1">
          <mxGeometry x="240" y="20" width="120" height="1290" as="geometry" />
        </mxCell>
        <mxCell id="jKQGevSTnmmPV13H3LuQ-3" value="1. 需求说明文档&lt;br&gt;2. 产品原型文档&lt;br&gt;3. 版本计划文档" style="shape=document;whiteSpace=wrap;html=1;boundedLbl=1;fillColor=#f8cecc;strokeColor=#b85450;" parent="Laq7MZ66SM4BXWgWfHiE-17" vertex="1">
          <mxGeometry x="10" y="110" width="100" height="60" as="geometry" />
        </mxCell>
        <mxCell id="jKQGevSTnmmPV13H3LuQ-12" value="1.概要设计文档" style="shape=document;whiteSpace=wrap;html=1;boundedLbl=1;fillColor=#f8cecc;strokeColor=#b85450;" parent="Laq7MZ66SM4BXWgWfHiE-17" vertex="1">
          <mxGeometry x="10" y="250" width="100" height="60" as="geometry" />
        </mxCell>
        <mxCell id="jKQGevSTnmmPV13H3LuQ-21" value="1.测试方案文档&lt;br&gt;2.测试计划文档&lt;br&gt;3.测试用例文档" style="shape=document;whiteSpace=wrap;html=1;boundedLbl=1;fillColor=#f8cecc;strokeColor=#b85450;" parent="Laq7MZ66SM4BXWgWfHiE-17" vertex="1">
          <mxGeometry x="10" y="390" width="100" height="60" as="geometry" />
        </mxCell>
        <mxCell id="jKQGevSTnmmPV13H3LuQ-41" value="1.测试报告文档" style="shape=document;whiteSpace=wrap;html=1;boundedLbl=1;fillColor=#f8cecc;strokeColor=#b85450;" parent="Laq7MZ66SM4BXWgWfHiE-17" vertex="1">
          <mxGeometry x="10" y="789" width="100" height="60" as="geometry" />
        </mxCell>
        <mxCell id="jKQGevSTnmmPV13H3LuQ-43" value="1.上线确认单" style="shape=document;whiteSpace=wrap;html=1;boundedLbl=1;fillColor=#f8cecc;strokeColor=#b85450;" parent="Laq7MZ66SM4BXWgWfHiE-17" vertex="1">
          <mxGeometry x="10" y="863" width="100" height="60" as="geometry" />
        </mxCell>
        <mxCell id="jKQGevSTnmmPV13H3LuQ-53" value="1. 发布成功邮件&lt;br&gt;2. 代码tag标记&amp;nbsp;&amp;nbsp;&lt;br&gt;3. 版本计划文档" style="shape=document;whiteSpace=wrap;html=1;boundedLbl=1;fillColor=#f8cecc;strokeColor=#b85450;" parent="Laq7MZ66SM4BXWgWfHiE-17" vertex="1">
          <mxGeometry x="10" y="1133" width="100" height="60" as="geometry" />
        </mxCell>
      </root>
    </mxGraphModel>
  </diagram>
</mxfile>
